<?xml version="1.0" encoding="utf-8"?>
<!-- Generator: Adobe Illustrator 16.0.0, SVG Export Plug-In . SVG Version: 6.00 Build 0)  -->
<!DOCTYPE svg PUBLIC "-//W3C//DTD SVG 1.1//EN" "http://www.w3.org/Graphics/SVG/1.1/DTD/svg11.dtd">
<svg version="1.1" id="Layer_1" xmlns="http://www.w3.org/2000/svg" xmlns:xlink="http://www.w3.org/1999/xlink" x="0px" y="0px"
	 width="399px" height="422.25px" viewBox="0 0 399 422.25" xml:space="preserve">
<g id="symbol">

		<linearGradient id="SVGID_1_" gradientUnits="userSpaceOnUse" x1="614.5615" y1="571.1191" x2="614.5615" y2="632.998" gradientTransform="matrix(0.495 -0.8689 -0.8689 -0.495 384.0346 989.2471)">
		<stop  offset="0" style="stop-color:#C84D0A"/>
		<stop  offset="1" style="stop-color:#F7C063"/>
	</linearGradient>
	<path fill="none" stroke="url(#SVGID_1_)" stroke-width="9" stroke-miterlimit="10" d="M142.173,251.393
		c16.4-83.753,31.15-143.872,46.299-188.74"/>

		<linearGradient id="SVGID_2_" gradientUnits="userSpaceOnUse" x1="617.0986" y1="568.6865" x2="617.0986" y2="617.9932" gradientTransform="matrix(0.495 -0.8689 -0.8689 -0.495 384.0346 989.2471)">
		<stop  offset="0" style="stop-color:#C84D0A"/>
		<stop  offset="1" style="stop-color:#F7C063"/>
	</linearGradient>
	<path fill="none" stroke="url(#SVGID_2_)" stroke-width="9" stroke-miterlimit="10" d="M193.12,84.782
		c-12.156,37.964-24.444,86.16-38.045,148.82"/>

		<linearGradient id="SVGID_3_" gradientUnits="userSpaceOnUse" x1="612.3691" y1="574.3271" x2="612.3691" y2="647.0732" gradientTransform="matrix(0.495 -0.8689 -0.8689 -0.495 384.0346 989.2471)">
		<stop  offset="0" style="stop-color:#C84D0A"/>
		<stop  offset="1" style="stop-color:#F7C063"/>
	</linearGradient>
	<path fill="none" stroke="url(#SVGID_3_)" stroke-width="9" stroke-miterlimit="10" d="M130.964,264.646
		c17.793-101.403,34.119-170.465,51.636-220.099"/>

		<linearGradient id="SVGID_4_" gradientUnits="userSpaceOnUse" x1="614.5615" y1="571.1191" x2="614.5615" y2="632.998" gradientTransform="matrix(0.495 -0.8689 -0.8689 -0.495 384.0346 989.2471)">
		<stop  offset="0" style="stop-color:#C84D0A"/>
		<stop  offset="1" style="stop-color:#F7C063"/>
	</linearGradient>
	<path fill="none" stroke="url(#SVGID_4_)" stroke-width="9" stroke-miterlimit="10" d="M188.472,62.652
		c-15.149,44.869-29.899,104.987-46.299,188.74"/>

		<linearGradient id="SVGID_5_" gradientUnits="userSpaceOnUse" x1="656.4551" y1="719.1699" x2="656.4551" y2="732.1064" gradientTransform="matrix(0.495 -0.8689 -0.8689 -0.495 384.0346 989.2471)">
		<stop  offset="0" style="stop-color:#C84D0A"/>
		<stop  offset="1" style="stop-color:#F7C063"/>
	</linearGradient>
	<path fill="none" stroke="url(#SVGID_5_)" stroke-width="9" stroke-miterlimit="10" d="M79.476,53.355
		c-0.671,4.109-1.323,8.304-1.953,12.569"/>

		<linearGradient id="SVGID_6_" gradientUnits="userSpaceOnUse" x1="617.0986" y1="568.6865" x2="617.0986" y2="617.9932" gradientTransform="matrix(0.495 -0.8689 -0.8689 -0.495 384.0346 989.2471)">
		<stop  offset="0" style="stop-color:#C84D0A"/>
		<stop  offset="1" style="stop-color:#F7C063"/>
	</linearGradient>
	<path fill="none" stroke="url(#SVGID_6_)" stroke-width="9" stroke-miterlimit="10" d="M155.075,233.602
		c13.601-62.66,25.889-110.855,38.045-148.82"/>

		<linearGradient id="SVGID_7_" gradientUnits="userSpaceOnUse" x1="619.9766" y1="568.2695" x2="619.9766" y2="600.7393" gradientTransform="matrix(0.495 -0.8689 -0.8689 -0.495 384.0346 989.2471)">
		<stop  offset="0" style="stop-color:#C84D0A"/>
		<stop  offset="1" style="stop-color:#F7C063"/>
	</linearGradient>
	<path fill="none" stroke="url(#SVGID_7_)" stroke-width="9" stroke-miterlimit="10" d="M195.083,116.151
		c-7.628,25.533-15.497,55.209-23.904,89.964"/>

		<linearGradient id="SVGID_8_" gradientUnits="userSpaceOnUse" x1="619.9766" y1="568.2695" x2="619.9766" y2="600.7393" gradientTransform="matrix(0.495 -0.8689 -0.8689 -0.495 384.0346 989.2471)">
		<stop  offset="0" style="stop-color:#C84D0A"/>
		<stop  offset="1" style="stop-color:#F7C063"/>
	</linearGradient>
	<path fill="none" stroke="url(#SVGID_8_)" stroke-width="9" stroke-miterlimit="10" d="M171.179,206.115
		c8.407-34.754,16.276-64.431,23.904-89.964"/>

		<linearGradient id="SVGID_9_" gradientUnits="userSpaceOnUse" x1="565.3418" y1="606.9209" x2="565.3418" y2="712.3223" gradientTransform="matrix(0.495 -0.8689 -0.8689 -0.495 384.0346 989.2471)">
		<stop  offset="0" style="stop-color:#C84D0A"/>
		<stop  offset="1" style="stop-color:#F7C063"/>
	</linearGradient>
	<path fill="none" stroke="url(#SVGID_9_)" stroke-width="9" stroke-miterlimit="10" d="M63.622,316.505
		c12.335-26.466,20.763-57.867,23.927-95.098c7.071-83.178,17.1-145.802,29.78-194.27"/>

		<linearGradient id="SVGID_10_" gradientUnits="userSpaceOnUse" x1="578.7207" y1="599.8613" x2="578.7207" y2="704.8223" gradientTransform="matrix(0.495 -0.8689 -0.8689 -0.495 384.0346 989.2471)">
		<stop  offset="0" style="stop-color:#C84D0A"/>
		<stop  offset="1" style="stop-color:#F7C063"/>
	</linearGradient>
	<path fill="none" stroke="url(#SVGID_10_)" stroke-width="9" stroke-miterlimit="10" d="M131.66,17.214
		C116.442,67.586,104.14,135.021,94.745,228.84c-3.105,31.006-9.796,57.918-19.313,81.245"/>

		<linearGradient id="SVGID_11_" gradientUnits="userSpaceOnUse" x1="479.3984" y1="622.5732" x2="479.3984" y2="674.1367" gradientTransform="matrix(0.495 -0.8689 -0.8689 -0.495 384.0346 989.2471)">
		<stop  offset="0" style="stop-color:#C84D0A"/>
		<stop  offset="1" style="stop-color:#F7C063"/>
	</linearGradient>
	<path fill="none" stroke="url(#SVGID_11_)" stroke-width="9" stroke-miterlimit="10" d="M39.69,326.816
		c18.558-31.475,30.771-70.925,33.469-120.274c0.534-9.755,1.128-19.223,1.777-28.432"/>

		<linearGradient id="SVGID_12_" gradientUnits="userSpaceOnUse" x1="494.2539" y1="614.5127" x2="494.2539" y2="674.1338" gradientTransform="matrix(0.495 -0.8689 -0.8689 -0.495 384.0346 989.2471)">
		<stop  offset="0" style="stop-color:#C84D0A"/>
		<stop  offset="1" style="stop-color:#F7C063"/>
	</linearGradient>
	<path fill="none" stroke="url(#SVGID_12_)" stroke-width="9" stroke-miterlimit="10" d="M84.819,160.879
		c-1.667,16.724-3.159,34.39-4.462,53.098c-3.032,43.357-13.296,78.946-28.667,108.113"/>

		<linearGradient id="SVGID_13_" gradientUnits="userSpaceOnUse" x1="562.9863" y1="669.5859" x2="562.9863" y2="669.5859" gradientTransform="matrix(0.495 -0.8689 -0.8689 -0.495 384.0346 989.2471)">
		<stop  offset="0" style="stop-color:#C84D0A"/>
		<stop  offset="1" style="stop-color:#F7C063"/>
	</linearGradient>
	<path fill="none" stroke="url(#SVGID_13_)" stroke-width="9" stroke-miterlimit="10" d="M80.91,168.623"/>

		<linearGradient id="SVGID_14_" gradientUnits="userSpaceOnUse" x1="494.2539" y1="614.5127" x2="494.2539" y2="674.1338" gradientTransform="matrix(0.495 -0.8689 -0.8689 -0.495 384.0346 989.2471)">
		<stop  offset="0" style="stop-color:#C84D0A"/>
		<stop  offset="1" style="stop-color:#F7C063"/>
	</linearGradient>
	<path fill="none" stroke="url(#SVGID_14_)" stroke-width="9" stroke-miterlimit="10" d="M51.689,322.09
		c15.371-29.167,25.635-64.756,28.667-108.113c1.304-18.708,2.796-36.374,4.462-53.098"/>

		<linearGradient id="SVGID_15_" gradientUnits="userSpaceOnUse" x1="565.3418" y1="606.9209" x2="565.3418" y2="712.3223" gradientTransform="matrix(0.495 -0.8689 -0.8689 -0.495 384.0346 989.2471)">
		<stop  offset="0" style="stop-color:#C84D0A"/>
		<stop  offset="1" style="stop-color:#F7C063"/>
	</linearGradient>
	<path fill="none" stroke="url(#SVGID_15_)" stroke-width="9" stroke-miterlimit="10" d="M117.33,27.138
		c-12.68,48.468-22.709,111.091-29.78,194.27c-3.165,37.23-11.592,68.632-23.927,95.098"/>

		<linearGradient id="SVGID_16_" gradientUnits="userSpaceOnUse" x1="656.75" y1="688.0811" x2="656.75" y2="719.3281" gradientTransform="matrix(0.495 -0.8689 -0.8689 -0.495 384.0346 989.2471)">
		<stop  offset="0" style="stop-color:#C84D0A"/>
		<stop  offset="1" style="stop-color:#F7C063"/>
	</linearGradient>
	<path fill="none" stroke="url(#SVGID_16_)" stroke-width="9" stroke-miterlimit="10" d="M91.691,103.875
		c3.596-24.949,7.686-47.314,12.241-67.457"/>

		<linearGradient id="SVGID_17_" gradientUnits="userSpaceOnUse" x1="578.7207" y1="599.8613" x2="578.7207" y2="704.8223" gradientTransform="matrix(0.495 -0.8689 -0.8689 -0.495 384.0346 989.2471)">
		<stop  offset="0" style="stop-color:#C84D0A"/>
		<stop  offset="1" style="stop-color:#F7C063"/>
	</linearGradient>
	<path fill="none" stroke="url(#SVGID_17_)" stroke-width="9" stroke-miterlimit="10" d="M75.432,310.085
		c9.517-23.326,16.208-50.238,19.313-81.245c9.395-93.819,21.697-161.254,36.915-211.626"/>

		<linearGradient id="SVGID_18_" gradientUnits="userSpaceOnUse" x1="593.0254" y1="593.4326" x2="593.0254" y2="696.7295" gradientTransform="matrix(0.495 -0.8689 -0.8689 -0.495 384.0346 989.2471)">
		<stop  offset="0" style="stop-color:#C84D0A"/>
		<stop  offset="1" style="stop-color:#F7C063"/>
	</linearGradient>
	<path fill="none" stroke="url(#SVGID_18_)" stroke-width="9" stroke-miterlimit="10" d="M147.122,6.505
		c-18.116,51.703-32.967,123.739-45.182,229.768c-2.851,24.745-7.961,46.825-14.927,66.536"/>

		<linearGradient id="SVGID_19_" gradientUnits="userSpaceOnUse" x1="448.9766" y1="646.7725" x2="448.9766" y2="682.166" gradientTransform="matrix(0.495 -0.8689 -0.8689 -0.495 384.0346 989.2471)">
		<stop  offset="0" style="stop-color:#C84D0A"/>
		<stop  offset="1" style="stop-color:#F7C063"/>
	</linearGradient>
	<path fill="none" stroke="url(#SVGID_19_)" stroke-width="9" stroke-miterlimit="10" d="M50.818,204.211
		c-3.755,56.145-21.176,99.109-46.651,131.911"/>

		<linearGradient id="SVGID_20_" gradientUnits="userSpaceOnUse" x1="457.8594" y1="638.7695" x2="457.8594" y2="678.7266" gradientTransform="matrix(0.495 -0.8689 -0.8689 -0.495 384.0346 989.2471)">
		<stop  offset="0" style="stop-color:#C84D0A"/>
		<stop  offset="1" style="stop-color:#F7C063"/>
	</linearGradient>
	<path fill="none" stroke="url(#SVGID_20_)" stroke-width="9" stroke-miterlimit="10" d="M15.82,333.819
		c24.351-34.016,40.415-78.454,42.751-136.375"/>

		<linearGradient id="SVGID_21_" gradientUnits="userSpaceOnUse" x1="467.7402" y1="630.6963" x2="467.7402" y2="676.0029" gradientTransform="matrix(0.495 -0.8689 -0.8689 -0.495 384.0346 989.2471)">
		<stop  offset="0" style="stop-color:#C84D0A"/>
		<stop  offset="1" style="stop-color:#F7C063"/>
	</linearGradient>
	<path fill="none" stroke="url(#SVGID_21_)" stroke-width="9" stroke-miterlimit="10" d="M66.393,189.236
		c-0.148,3.273-0.299,6.538-0.429,9.875c-2.177,55.157-16.416,98.154-38.255,131.602"/>

		<linearGradient id="SVGID_22_" gradientUnits="userSpaceOnUse" x1="467.7402" y1="630.6963" x2="467.7402" y2="676.0029" gradientTransform="matrix(0.495 -0.8689 -0.8689 -0.495 384.0346 989.2471)">
		<stop  offset="0" style="stop-color:#C84D0A"/>
		<stop  offset="1" style="stop-color:#F7C063"/>
	</linearGradient>
	<path fill="none" stroke="url(#SVGID_22_)" stroke-width="9" stroke-miterlimit="10" d="M27.709,330.713
		c21.839-33.447,36.078-76.444,38.255-131.602c0.129-3.337,0.28-6.602,0.429-9.875"/>

		<linearGradient id="SVGID_23_" gradientUnits="userSpaceOnUse" x1="479.3984" y1="622.5732" x2="479.3984" y2="674.1367" gradientTransform="matrix(0.495 -0.8689 -0.8689 -0.495 384.0346 989.2471)">
		<stop  offset="0" style="stop-color:#C84D0A"/>
		<stop  offset="1" style="stop-color:#F7C063"/>
	</linearGradient>
	<path fill="none" stroke="url(#SVGID_23_)" stroke-width="9" stroke-miterlimit="10" d="M74.937,178.11
		c-0.649,9.209-1.244,18.677-1.777,28.432c-2.698,49.35-14.911,88.8-33.469,120.274"/>

		<linearGradient id="SVGID_24_" gradientUnits="userSpaceOnUse" x1="448.9766" y1="646.7725" x2="448.9766" y2="682.166" gradientTransform="matrix(0.495 -0.8689 -0.8689 -0.495 384.0346 989.2471)">
		<stop  offset="0" style="stop-color:#C84D0A"/>
		<stop  offset="1" style="stop-color:#F7C063"/>
	</linearGradient>
	<path fill="none" stroke="url(#SVGID_24_)" stroke-width="9" stroke-miterlimit="10" d="M4.167,336.122
		c25.475-32.802,42.896-75.766,46.651-131.911"/>

		<linearGradient id="SVGID_25_" gradientUnits="userSpaceOnUse" x1="457.8594" y1="638.7695" x2="457.8594" y2="678.7266" gradientTransform="matrix(0.495 -0.8689 -0.8689 -0.495 384.0346 989.2471)">
		<stop  offset="0" style="stop-color:#C84D0A"/>
		<stop  offset="1" style="stop-color:#F7C063"/>
	</linearGradient>
	<path fill="none" stroke="url(#SVGID_25_)" stroke-width="9" stroke-miterlimit="10" d="M58.571,197.444
		c-2.336,57.921-18.401,102.36-42.751,136.375"/>

		<linearGradient id="SVGID_26_" gradientUnits="userSpaceOnUse" x1="658.2559" y1="705.0078" x2="658.2559" y2="725.9092" gradientTransform="matrix(0.495 -0.8689 -0.8689 -0.495 384.0346 989.2471)">
		<stop  offset="0" style="stop-color:#C84D0A"/>
		<stop  offset="1" style="stop-color:#F7C063"/>
	</linearGradient>
	<path fill="none" stroke="url(#SVGID_26_)" stroke-width="9" stroke-miterlimit="10" d="M91.343,45.136
		c-2.191,11.306-4.233,23.241-6.119,35.876"/>

		<linearGradient id="SVGID_27_" gradientUnits="userSpaceOnUse" x1="656.4551" y1="719.1699" x2="656.4551" y2="732.1064" gradientTransform="matrix(0.495 -0.8689 -0.8689 -0.495 384.0346 989.2471)">
		<stop  offset="0" style="stop-color:#C84D0A"/>
		<stop  offset="1" style="stop-color:#F7C063"/>
	</linearGradient>
	<path fill="none" stroke="url(#SVGID_27_)" stroke-width="9" stroke-miterlimit="10" d="M77.523,65.925
		c0.63-4.265,1.282-8.46,1.953-12.569"/>

		<linearGradient id="SVGID_28_" gradientUnits="userSpaceOnUse" x1="607.5049" y1="582.4814" x2="607.5049" y2="673.7959" gradientTransform="matrix(0.495 -0.8689 -0.8689 -0.495 384.0346 989.2471)">
		<stop  offset="0" style="stop-color:#C84D0A"/>
		<stop  offset="1" style="stop-color:#F7C063"/>
	</linearGradient>
	<path fill="none" stroke="url(#SVGID_28_)" stroke-width="9" stroke-miterlimit="10" d="M109.506,285.63
		c2.771-10.86,5.062-22.347,6.826-34.491c16.203-111.577,32.963-184.814,52.417-236.229"/>

		<linearGradient id="SVGID_29_" gradientUnits="userSpaceOnUse" x1="610.168" y1="578.0518" x2="610.168" y2="660.6094" gradientTransform="matrix(0.495 -0.8689 -0.8689 -0.495 384.0346 989.2471)">
		<stop  offset="0" style="stop-color:#C84D0A"/>
		<stop  offset="1" style="stop-color:#F7C063"/>
	</linearGradient>
	<path fill="none" stroke="url(#SVGID_29_)" stroke-width="9" stroke-miterlimit="10" d="M175.96,28.875
		c-18.588,50.711-35.225,122.273-52.433,229.695c-0.937,5.858-2.01,11.543-3.184,17.094"/>

		<linearGradient id="SVGID_30_" gradientUnits="userSpaceOnUse" x1="656.75" y1="688.0811" x2="656.75" y2="719.3281" gradientTransform="matrix(0.495 -0.8689 -0.8689 -0.495 384.0346 989.2471)">
		<stop  offset="0" style="stop-color:#C84D0A"/>
		<stop  offset="1" style="stop-color:#F7C063"/>
	</linearGradient>
	<path fill="none" stroke="url(#SVGID_30_)" stroke-width="9" stroke-miterlimit="10" d="M103.932,36.417
		c-4.555,20.143-8.645,42.508-12.241,67.457"/>

		<linearGradient id="SVGID_31_" gradientUnits="userSpaceOnUse" x1="658.2559" y1="705.0078" x2="658.2559" y2="725.9092" gradientTransform="matrix(0.495 -0.8689 -0.8689 -0.495 384.0346 989.2471)">
		<stop  offset="0" style="stop-color:#C84D0A"/>
		<stop  offset="1" style="stop-color:#F7C063"/>
	</linearGradient>
	<path fill="none" stroke="url(#SVGID_31_)" stroke-width="9" stroke-miterlimit="10" d="M85.224,81.012
		c1.886-12.635,3.928-24.57,6.119-35.876"/>

		<linearGradient id="SVGID_32_" gradientUnits="userSpaceOnUse" x1="604.5078" y1="587.625" x2="604.5078" y2="686.7451" gradientTransform="matrix(0.495 -0.8689 -0.8689 -0.495 384.0346 989.2471)">
		<stop  offset="0" style="stop-color:#C84D0A"/>
		<stop  offset="1" style="stop-color:#F7C063"/>
	</linearGradient>
	<path fill="none" stroke="url(#SVGID_32_)" stroke-width="9" stroke-miterlimit="10" d="M98.377,294.679
		c4.709-15.574,8.356-32.519,10.759-50.973c14.955-114.837,31.744-189.454,51.942-241.48"/>

		<linearGradient id="SVGID_33_" gradientUnits="userSpaceOnUse" x1="607.5049" y1="582.4814" x2="607.5049" y2="673.7959" gradientTransform="matrix(0.495 -0.8689 -0.8689 -0.495 384.0346 989.2471)">
		<stop  offset="0" style="stop-color:#C84D0A"/>
		<stop  offset="1" style="stop-color:#F7C063"/>
	</linearGradient>
	<path fill="none" stroke="url(#SVGID_33_)" stroke-width="9" stroke-miterlimit="10" d="M168.749,14.91
		c-19.453,51.415-36.213,124.652-52.417,236.229c-1.764,12.145-4.055,23.631-6.826,34.491"/>

		<linearGradient id="SVGID_34_" gradientUnits="userSpaceOnUse" x1="610.168" y1="578.0518" x2="610.168" y2="660.6094" gradientTransform="matrix(0.495 -0.8689 -0.8689 -0.495 384.0346 989.2471)">
		<stop  offset="0" style="stop-color:#C84D0A"/>
		<stop  offset="1" style="stop-color:#F7C063"/>
	</linearGradient>
	<path fill="none" stroke="url(#SVGID_34_)" stroke-width="9" stroke-miterlimit="10" d="M120.343,275.664
		c1.174-5.551,2.247-11.235,3.184-17.094c17.208-107.421,33.845-178.983,52.433-229.695"/>

		<linearGradient id="SVGID_35_" gradientUnits="userSpaceOnUse" x1="612.3691" y1="574.3271" x2="612.3691" y2="647.0732" gradientTransform="matrix(0.495 -0.8689 -0.8689 -0.495 384.0346 989.2471)">
		<stop  offset="0" style="stop-color:#C84D0A"/>
		<stop  offset="1" style="stop-color:#F7C063"/>
	</linearGradient>
	<path fill="none" stroke="url(#SVGID_35_)" stroke-width="9" stroke-miterlimit="10" d="M182.601,44.548
		c-17.518,49.634-33.843,118.696-51.636,220.099"/>
</g>
<g id="symbol_2_">

		<linearGradient id="SVGID_36_" gradientUnits="userSpaceOnUse" x1="608.6221" y1="581.5459" x2="608.6221" y2="643.4248" gradientTransform="matrix(-0.495 -0.8689 0.8689 -0.495 3.2154 989.2471)">
		<stop  offset="0" style="stop-color:#C84D0A"/>
		<stop  offset="1" style="stop-color:#F7C063"/>
	</linearGradient>
	<path fill="none" stroke="url(#SVGID_36_)" stroke-width="9" stroke-miterlimit="10" d="M257.077,251.393
		c-16.4-83.753-31.15-143.872-46.299-188.74"/>

		<linearGradient id="SVGID_37_" gradientUnits="userSpaceOnUse" x1="611.1582" y1="579.1143" x2="611.1582" y2="628.4189" gradientTransform="matrix(-0.495 -0.8689 0.8689 -0.495 3.2154 989.2471)">
		<stop  offset="0" style="stop-color:#C84D0A"/>
		<stop  offset="1" style="stop-color:#F7C063"/>
	</linearGradient>
	<path fill="none" stroke="url(#SVGID_37_)" stroke-width="9" stroke-miterlimit="10" d="M206.13,84.782
		c12.156,37.964,24.444,86.16,38.045,148.82"/>

		<linearGradient id="SVGID_38_" gradientUnits="userSpaceOnUse" x1="606.4297" y1="584.7529" x2="606.4297" y2="657.499" gradientTransform="matrix(-0.495 -0.8689 0.8689 -0.495 3.2154 989.2471)">
		<stop  offset="0" style="stop-color:#C84D0A"/>
		<stop  offset="1" style="stop-color:#F7C063"/>
	</linearGradient>
	<path fill="none" stroke="url(#SVGID_38_)" stroke-width="9" stroke-miterlimit="10" d="M268.285,264.646
		c-17.793-101.403-34.118-170.465-51.636-220.099"/>

		<linearGradient id="SVGID_39_" gradientUnits="userSpaceOnUse" x1="608.6221" y1="581.5459" x2="608.6221" y2="643.4248" gradientTransform="matrix(-0.495 -0.8689 0.8689 -0.495 3.2154 989.2471)">
		<stop  offset="0" style="stop-color:#C84D0A"/>
		<stop  offset="1" style="stop-color:#F7C063"/>
	</linearGradient>
	<path fill="none" stroke="url(#SVGID_39_)" stroke-width="9" stroke-miterlimit="10" d="M210.778,62.652
		c15.149,44.869,29.899,104.987,46.299,188.74"/>

		<linearGradient id="SVGID_40_" gradientUnits="userSpaceOnUse" x1="650.5156" y1="729.5967" x2="650.5156" y2="742.5332" gradientTransform="matrix(-0.495 -0.8689 0.8689 -0.495 3.2154 989.2471)">
		<stop  offset="0" style="stop-color:#C84D0A"/>
		<stop  offset="1" style="stop-color:#F7C063"/>
	</linearGradient>
	<path fill="none" stroke="url(#SVGID_40_)" stroke-width="9" stroke-miterlimit="10" d="M319.773,53.355
		c0.672,4.109,1.323,8.304,1.953,12.569"/>

		<linearGradient id="SVGID_41_" gradientUnits="userSpaceOnUse" x1="611.1582" y1="579.1143" x2="611.1582" y2="628.4189" gradientTransform="matrix(-0.495 -0.8689 0.8689 -0.495 3.2154 989.2471)">
		<stop  offset="0" style="stop-color:#C84D0A"/>
		<stop  offset="1" style="stop-color:#F7C063"/>
	</linearGradient>
	<path fill="none" stroke="url(#SVGID_41_)" stroke-width="9" stroke-miterlimit="10" d="M244.176,233.602
		c-13.602-62.66-25.89-110.855-38.045-148.82"/>

		<linearGradient id="SVGID_42_" gradientUnits="userSpaceOnUse" x1="614.0371" y1="578.6963" x2="614.0371" y2="611.165" gradientTransform="matrix(-0.495 -0.8689 0.8689 -0.495 3.2154 989.2471)">
		<stop  offset="0" style="stop-color:#C84D0A"/>
		<stop  offset="1" style="stop-color:#F7C063"/>
	</linearGradient>
	<path fill="none" stroke="url(#SVGID_42_)" stroke-width="9" stroke-miterlimit="10" d="M204.167,116.151
		c7.628,25.533,15.497,55.209,23.904,89.964"/>

		<linearGradient id="SVGID_43_" gradientUnits="userSpaceOnUse" x1="614.0371" y1="578.6963" x2="614.0371" y2="611.165" gradientTransform="matrix(-0.495 -0.8689 0.8689 -0.495 3.2154 989.2471)">
		<stop  offset="0" style="stop-color:#C84D0A"/>
		<stop  offset="1" style="stop-color:#F7C063"/>
	</linearGradient>
	<path fill="none" stroke="url(#SVGID_43_)" stroke-width="9" stroke-miterlimit="10" d="M228.071,206.115
		c-8.407-34.754-16.276-64.431-23.904-89.964"/>

		<linearGradient id="SVGID_44_" gradientUnits="userSpaceOnUse" x1="559.4023" y1="617.3477" x2="559.4023" y2="722.748" gradientTransform="matrix(-0.495 -0.8689 0.8689 -0.495 3.2154 989.2471)">
		<stop  offset="0" style="stop-color:#C84D0A"/>
		<stop  offset="1" style="stop-color:#F7C063"/>
	</linearGradient>
	<path fill="none" stroke="url(#SVGID_44_)" stroke-width="9" stroke-miterlimit="10" d="M335.628,316.505
		c-12.335-26.466-20.763-57.867-23.927-95.098c-7.071-83.178-17.101-145.802-29.781-194.27"/>

		<linearGradient id="SVGID_45_" gradientUnits="userSpaceOnUse" x1="572.7812" y1="610.2881" x2="572.7812" y2="715.249" gradientTransform="matrix(-0.495 -0.8689 0.8689 -0.495 3.2154 989.2471)">
		<stop  offset="0" style="stop-color:#C84D0A"/>
		<stop  offset="1" style="stop-color:#F7C063"/>
	</linearGradient>
	<path fill="none" stroke="url(#SVGID_45_)" stroke-width="9" stroke-miterlimit="10" d="M267.59,17.214
		c15.218,50.372,27.521,117.807,36.915,211.626c3.104,31.006,9.796,57.918,19.313,81.245"/>

		<linearGradient id="SVGID_46_" gradientUnits="userSpaceOnUse" x1="473.459" y1="633" x2="473.459" y2="684.5635" gradientTransform="matrix(-0.495 -0.8689 0.8689 -0.495 3.2154 989.2471)">
		<stop  offset="0" style="stop-color:#C84D0A"/>
		<stop  offset="1" style="stop-color:#F7C063"/>
	</linearGradient>
	<path fill="none" stroke="url(#SVGID_46_)" stroke-width="9" stroke-miterlimit="10" d="M359.561,326.816
		c-18.559-31.475-30.771-70.925-33.47-120.274c-0.534-9.755-1.128-19.223-1.777-28.432"/>

		<linearGradient id="SVGID_47_" gradientUnits="userSpaceOnUse" x1="488.3145" y1="624.9385" x2="488.3145" y2="684.5605" gradientTransform="matrix(-0.495 -0.8689 0.8689 -0.495 3.2154 989.2471)">
		<stop  offset="0" style="stop-color:#C84D0A"/>
		<stop  offset="1" style="stop-color:#F7C063"/>
	</linearGradient>
	<path fill="none" stroke="url(#SVGID_47_)" stroke-width="9" stroke-miterlimit="10" d="M314.432,160.879
		c1.666,16.724,3.158,34.39,4.462,53.098c3.032,43.357,13.296,78.946,28.667,108.113"/>

		<linearGradient id="SVGID_48_" gradientUnits="userSpaceOnUse" x1="557.0469" y1="680.0117" x2="557.0469" y2="680.0117" gradientTransform="matrix(-0.495 -0.8689 0.8689 -0.495 3.2154 989.2471)">
		<stop  offset="0" style="stop-color:#C84D0A"/>
		<stop  offset="1" style="stop-color:#F7C063"/>
	</linearGradient>
	<path fill="none" stroke="url(#SVGID_48_)" stroke-width="9" stroke-miterlimit="10" d="M318.34,168.623"/>

		<linearGradient id="SVGID_49_" gradientUnits="userSpaceOnUse" x1="488.3145" y1="624.9385" x2="488.3145" y2="684.5605" gradientTransform="matrix(-0.495 -0.8689 0.8689 -0.495 3.2154 989.2471)">
		<stop  offset="0" style="stop-color:#C84D0A"/>
		<stop  offset="1" style="stop-color:#F7C063"/>
	</linearGradient>
	<path fill="none" stroke="url(#SVGID_49_)" stroke-width="9" stroke-miterlimit="10" d="M347.561,322.09
		c-15.371-29.167-25.635-64.756-28.667-108.113c-1.304-18.708-2.796-36.374-4.462-53.098"/>

		<linearGradient id="SVGID_50_" gradientUnits="userSpaceOnUse" x1="559.4023" y1="617.3477" x2="559.4023" y2="722.748" gradientTransform="matrix(-0.495 -0.8689 0.8689 -0.495 3.2154 989.2471)">
		<stop  offset="0" style="stop-color:#C84D0A"/>
		<stop  offset="1" style="stop-color:#F7C063"/>
	</linearGradient>
	<path fill="none" stroke="url(#SVGID_50_)" stroke-width="9" stroke-miterlimit="10" d="M281.92,27.138
		c12.681,48.468,22.71,111.091,29.781,194.27c3.164,37.23,11.592,68.632,23.927,95.098"/>

		<linearGradient id="SVGID_51_" gradientUnits="userSpaceOnUse" x1="650.8105" y1="698.5068" x2="650.8105" y2="729.7549" gradientTransform="matrix(-0.495 -0.8689 0.8689 -0.495 3.2154 989.2471)">
		<stop  offset="0" style="stop-color:#C84D0A"/>
		<stop  offset="1" style="stop-color:#F7C063"/>
	</linearGradient>
	<path fill="none" stroke="url(#SVGID_51_)" stroke-width="9" stroke-miterlimit="10" d="M307.559,103.875
		c-3.596-24.949-7.686-47.314-12.24-67.457"/>

		<linearGradient id="SVGID_52_" gradientUnits="userSpaceOnUse" x1="572.7812" y1="610.2881" x2="572.7812" y2="715.249" gradientTransform="matrix(-0.495 -0.8689 0.8689 -0.495 3.2154 989.2471)">
		<stop  offset="0" style="stop-color:#C84D0A"/>
		<stop  offset="1" style="stop-color:#F7C063"/>
	</linearGradient>
	<path fill="none" stroke="url(#SVGID_52_)" stroke-width="9" stroke-miterlimit="10" d="M323.818,310.085
		c-9.518-23.326-16.209-50.238-19.313-81.245c-9.395-93.819-21.697-161.254-36.915-211.626"/>

		<linearGradient id="SVGID_53_" gradientUnits="userSpaceOnUse" x1="587.0859" y1="603.8594" x2="587.0859" y2="707.1553" gradientTransform="matrix(-0.495 -0.8689 0.8689 -0.495 3.2154 989.2471)">
		<stop  offset="0" style="stop-color:#C84D0A"/>
		<stop  offset="1" style="stop-color:#F7C063"/>
	</linearGradient>
	<path fill="none" stroke="url(#SVGID_53_)" stroke-width="9" stroke-miterlimit="10" d="M252.128,6.505
		c18.116,51.703,32.968,123.739,45.182,229.768c2.851,24.745,7.961,46.825,14.927,66.536"/>

		<linearGradient id="SVGID_54_" gradientUnits="userSpaceOnUse" x1="443.0371" y1="657.1992" x2="443.0371" y2="692.5928" gradientTransform="matrix(-0.495 -0.8689 0.8689 -0.495 3.2154 989.2471)">
		<stop  offset="0" style="stop-color:#C84D0A"/>
		<stop  offset="1" style="stop-color:#F7C063"/>
	</linearGradient>
	<path fill="none" stroke="url(#SVGID_54_)" stroke-width="9" stroke-miterlimit="10" d="M348.432,204.211
		c3.756,56.145,21.176,99.109,46.65,131.911"/>

		<linearGradient id="SVGID_55_" gradientUnits="userSpaceOnUse" x1="451.9199" y1="649.1963" x2="451.9199" y2="689.1533" gradientTransform="matrix(-0.495 -0.8689 0.8689 -0.495 3.2154 989.2471)">
		<stop  offset="0" style="stop-color:#C84D0A"/>
		<stop  offset="1" style="stop-color:#F7C063"/>
	</linearGradient>
	<path fill="none" stroke="url(#SVGID_55_)" stroke-width="9" stroke-miterlimit="10" d="M383.43,333.819
		c-24.35-34.016-40.414-78.454-42.751-136.375"/>

		<linearGradient id="SVGID_56_" gradientUnits="userSpaceOnUse" x1="461.7998" y1="641.123" x2="461.7998" y2="686.4297" gradientTransform="matrix(-0.495 -0.8689 0.8689 -0.495 3.2154 989.2471)">
		<stop  offset="0" style="stop-color:#C84D0A"/>
		<stop  offset="1" style="stop-color:#F7C063"/>
	</linearGradient>
	<path fill="none" stroke="url(#SVGID_56_)" stroke-width="9" stroke-miterlimit="10" d="M332.857,189.236
		c0.148,3.273,0.299,6.538,0.428,9.875c2.178,55.157,16.416,98.154,38.256,131.602"/>

		<linearGradient id="SVGID_57_" gradientUnits="userSpaceOnUse" x1="461.7998" y1="641.123" x2="461.7998" y2="686.4297" gradientTransform="matrix(-0.495 -0.8689 0.8689 -0.495 3.2154 989.2471)">
		<stop  offset="0" style="stop-color:#C84D0A"/>
		<stop  offset="1" style="stop-color:#F7C063"/>
	</linearGradient>
	<path fill="none" stroke="url(#SVGID_57_)" stroke-width="9" stroke-miterlimit="10" d="M371.541,330.713
		c-21.84-33.447-36.078-76.444-38.256-131.602c-0.129-3.337-0.279-6.602-0.428-9.875"/>

		<linearGradient id="SVGID_58_" gradientUnits="userSpaceOnUse" x1="473.459" y1="633" x2="473.459" y2="684.5635" gradientTransform="matrix(-0.495 -0.8689 0.8689 -0.495 3.2154 989.2471)">
		<stop  offset="0" style="stop-color:#C84D0A"/>
		<stop  offset="1" style="stop-color:#F7C063"/>
	</linearGradient>
	<path fill="none" stroke="url(#SVGID_58_)" stroke-width="9" stroke-miterlimit="10" d="M324.313,178.11
		c0.649,9.209,1.243,18.677,1.777,28.432c2.698,49.35,14.911,88.8,33.47,120.274"/>

		<linearGradient id="SVGID_59_" gradientUnits="userSpaceOnUse" x1="443.0371" y1="657.1992" x2="443.0371" y2="692.5928" gradientTransform="matrix(-0.495 -0.8689 0.8689 -0.495 3.2154 989.2471)">
		<stop  offset="0" style="stop-color:#C84D0A"/>
		<stop  offset="1" style="stop-color:#F7C063"/>
	</linearGradient>
	<path fill="none" stroke="url(#SVGID_59_)" stroke-width="9" stroke-miterlimit="10" d="M395.082,336.122
		c-25.475-32.802-42.895-75.766-46.65-131.911"/>

		<linearGradient id="SVGID_60_" gradientUnits="userSpaceOnUse" x1="451.9199" y1="649.1963" x2="451.9199" y2="689.1533" gradientTransform="matrix(-0.495 -0.8689 0.8689 -0.495 3.2154 989.2471)">
		<stop  offset="0" style="stop-color:#C84D0A"/>
		<stop  offset="1" style="stop-color:#F7C063"/>
	</linearGradient>
	<path fill="none" stroke="url(#SVGID_60_)" stroke-width="9" stroke-miterlimit="10" d="M340.679,197.444
		c2.337,57.921,18.401,102.36,42.751,136.375"/>

		<linearGradient id="SVGID_61_" gradientUnits="userSpaceOnUse" x1="652.3164" y1="715.4346" x2="652.3164" y2="736.335" gradientTransform="matrix(-0.495 -0.8689 0.8689 -0.495 3.2154 989.2471)">
		<stop  offset="0" style="stop-color:#C84D0A"/>
		<stop  offset="1" style="stop-color:#F7C063"/>
	</linearGradient>
	<path fill="none" stroke="url(#SVGID_61_)" stroke-width="9" stroke-miterlimit="10" d="M307.907,45.136
		c2.19,11.306,4.233,23.241,6.118,35.876"/>

		<linearGradient id="SVGID_62_" gradientUnits="userSpaceOnUse" x1="650.5156" y1="729.5967" x2="650.5156" y2="742.5332" gradientTransform="matrix(-0.495 -0.8689 0.8689 -0.495 3.2154 989.2471)">
		<stop  offset="0" style="stop-color:#C84D0A"/>
		<stop  offset="1" style="stop-color:#F7C063"/>
	</linearGradient>
	<path fill="none" stroke="url(#SVGID_62_)" stroke-width="9" stroke-miterlimit="10" d="M321.727,65.925
		c-0.63-4.265-1.281-8.46-1.953-12.569"/>

		<linearGradient id="SVGID_63_" gradientUnits="userSpaceOnUse" x1="601.5645" y1="592.9082" x2="601.5645" y2="684.2227" gradientTransform="matrix(-0.495 -0.8689 0.8689 -0.495 3.2154 989.2471)">
		<stop  offset="0" style="stop-color:#C84D0A"/>
		<stop  offset="1" style="stop-color:#F7C063"/>
	</linearGradient>
	<path fill="none" stroke="url(#SVGID_63_)" stroke-width="9" stroke-miterlimit="10" d="M289.744,285.63
		c-2.771-10.86-5.062-22.347-6.826-34.491C266.715,139.562,249.954,66.324,230.501,14.91"/>

		<linearGradient id="SVGID_64_" gradientUnits="userSpaceOnUse" x1="604.2275" y1="588.4775" x2="604.2275" y2="671.0361" gradientTransform="matrix(-0.495 -0.8689 0.8689 -0.495 3.2154 989.2471)">
		<stop  offset="0" style="stop-color:#C84D0A"/>
		<stop  offset="1" style="stop-color:#F7C063"/>
	</linearGradient>
	<path fill="none" stroke="url(#SVGID_64_)" stroke-width="9" stroke-miterlimit="10" d="M223.29,28.875
		c18.589,50.711,35.226,122.273,52.433,229.695c0.938,5.858,2.01,11.543,3.184,17.094"/>

		<linearGradient id="SVGID_65_" gradientUnits="userSpaceOnUse" x1="650.8105" y1="698.5068" x2="650.8105" y2="729.7549" gradientTransform="matrix(-0.495 -0.8689 0.8689 -0.495 3.2154 989.2471)">
		<stop  offset="0" style="stop-color:#C84D0A"/>
		<stop  offset="1" style="stop-color:#F7C063"/>
	</linearGradient>
	<path fill="none" stroke="url(#SVGID_65_)" stroke-width="9" stroke-miterlimit="10" d="M295.318,36.417
		c4.555,20.143,8.645,42.508,12.24,67.457"/>

		<linearGradient id="SVGID_66_" gradientUnits="userSpaceOnUse" x1="652.3164" y1="715.4346" x2="652.3164" y2="736.335" gradientTransform="matrix(-0.495 -0.8689 0.8689 -0.495 3.2154 989.2471)">
		<stop  offset="0" style="stop-color:#C84D0A"/>
		<stop  offset="1" style="stop-color:#F7C063"/>
	</linearGradient>
	<path fill="none" stroke="url(#SVGID_66_)" stroke-width="9" stroke-miterlimit="10" d="M314.025,81.012
		c-1.885-12.635-3.928-24.57-6.118-35.876"/>

		<linearGradient id="SVGID_67_" gradientUnits="userSpaceOnUse" x1="598.5684" y1="598.0508" x2="598.5684" y2="697.1719" gradientTransform="matrix(-0.495 -0.8689 0.8689 -0.495 3.2154 989.2471)">
		<stop  offset="0" style="stop-color:#C84D0A"/>
		<stop  offset="1" style="stop-color:#F7C063"/>
	</linearGradient>
	<path fill="none" stroke="url(#SVGID_67_)" stroke-width="9" stroke-miterlimit="10" d="M300.873,294.679
		c-4.709-15.574-8.356-32.519-10.76-50.973c-14.954-114.837-31.744-189.454-51.941-241.48"/>

		<linearGradient id="SVGID_68_" gradientUnits="userSpaceOnUse" x1="601.5645" y1="592.9082" x2="601.5645" y2="684.2227" gradientTransform="matrix(-0.495 -0.8689 0.8689 -0.495 3.2154 989.2471)">
		<stop  offset="0" style="stop-color:#C84D0A"/>
		<stop  offset="1" style="stop-color:#F7C063"/>
	</linearGradient>
	<path fill="none" stroke="url(#SVGID_68_)" stroke-width="9" stroke-miterlimit="10" d="M230.501,14.91
		c19.453,51.415,36.214,124.652,52.417,236.229c1.764,12.145,4.055,23.631,6.826,34.491"/>

		<linearGradient id="SVGID_69_" gradientUnits="userSpaceOnUse" x1="604.2275" y1="588.4775" x2="604.2275" y2="671.0361" gradientTransform="matrix(-0.495 -0.8689 0.8689 -0.495 3.2154 989.2471)">
		<stop  offset="0" style="stop-color:#C84D0A"/>
		<stop  offset="1" style="stop-color:#F7C063"/>
	</linearGradient>
	<path fill="none" stroke="url(#SVGID_69_)" stroke-width="9" stroke-miterlimit="10" d="M278.906,275.664
		c-1.174-5.551-2.246-11.235-3.184-17.094C258.516,151.149,241.879,79.587,223.29,28.875"/>

		<linearGradient id="SVGID_70_" gradientUnits="userSpaceOnUse" x1="606.4297" y1="584.7529" x2="606.4297" y2="657.499" gradientTransform="matrix(-0.495 -0.8689 0.8689 -0.495 3.2154 989.2471)">
		<stop  offset="0" style="stop-color:#C84D0A"/>
		<stop  offset="1" style="stop-color:#F7C063"/>
	</linearGradient>
	<path fill="none" stroke="url(#SVGID_70_)" stroke-width="9" stroke-miterlimit="10" d="M216.649,44.548
		c17.518,49.634,33.843,118.696,51.636,220.099"/>
</g>
<g>
	<path fill="#FFFFFF" d="M106.334,336.636c0-13.846,10.418-23.188,23.929-23.188c9.813,0,15.527,5.31,18.686,10.956l-8.2,4.032
		c-1.882-3.63-5.915-6.52-10.485-6.52c-8.2,0-14.115,6.251-14.115,14.72c0,8.47,5.915,14.721,14.115,14.721
		c4.571,0,8.604-2.891,10.485-6.521l8.2,3.966c-3.159,5.579-8.872,11.023-18.686,11.023
		C116.752,359.826,106.334,350.416,106.334,336.636z"/>
	<path fill="#FFFFFF" d="M167.706,359.019v-44.832h9.612v36.43h18.955v8.402H167.706z"/>
	<path fill="#FFFFFF" d="M216.171,359.019v-44.832h9.545v44.832H216.171z"/>
	<path fill="#FFFFFF" d="M245.882,336.636c0-13.51,9.881-23.188,23.458-23.188c13.51,0,23.391,9.679,23.391,23.188
		c0,13.511-9.881,23.189-23.391,23.189C255.763,359.826,245.882,350.147,245.882,336.636z M282.917,336.636
		c0-8.401-5.31-14.72-13.578-14.72c-8.334,0-13.645,6.318-13.645,14.72c0,8.335,5.31,14.721,13.645,14.721
		C277.607,351.357,282.917,344.971,282.917,336.636z"/>
</g>
<linearGradient id="SVGID_71_" gradientUnits="userSpaceOnUse" x1="182.0415" y1="403.9062" x2="217.3525" y2="403.9062">
	<stop  offset="0" style="stop-color:#C84D0A"/>
	<stop  offset="1" style="stop-color:#F7C063"/>
</linearGradient>
<polygon fill="url(#SVGID_71_)" points="188.009,421.562 182.042,415.595 211.385,386.251 217.353,392.219 "/>
<linearGradient id="SVGID_72_" gradientUnits="userSpaceOnUse" x1="181.5439" y1="403.9062" x2="216.855" y2="403.9062">
	<stop  offset="0" style="stop-color:#C84D0A"/>
	<stop  offset="1" style="stop-color:#F7C063"/>
</linearGradient>
<polygon fill="url(#SVGID_72_)" points="181.544,392.219 187.512,386.251 216.855,415.595 210.887,421.562 "/>
</svg>
